<?xml version="1.0" standalone="no"?>
<!DOCTYPE svg PUBLIC "-//W3C//DTD SVG 20010904//EN"
 "http://www.w3.org/TR/2001/REC-SVG-20010904/DTD/svg10.dtd">
<svg version="1.0" xmlns="http://www.w3.org/2000/svg"
 width="675.000000pt" height="450.000000pt" viewBox="0 0 675.000000 450.000000"
 preserveAspectRatio="xMidYMid meet">

<g transform="translate(0.000000,450.000000) scale(0.100000,-0.100000)"
fill="#000000" stroke="none">
<path d="M6720 4475 c0 -16 6 -25 15 -25 9 0 15 9 15 25 0 16 -6 25 -15 25 -9
0 -15 -9 -15 -25z"/>
<path d="M6240 2340 c0 -6 92 -10 255 -10 163 0 255 4 255 10 0 6 -92 10 -255
10 -163 0 -255 -4 -255 -10z"/>
<path d="M6668 2243 c18 -2 45 -2 60 0 15 2 0 4 -33 4 -33 0 -45 -2 -27 -4z"/>
<path d="M6505 2221 c-37 -4 -1 -6 92 -6 84 0 153 3 153 8 0 8 -154 7 -245 -2z"/>
<path d="M2230 2159 c0 -3 9 -16 20 -29 28 -32 25 -44 -5 -24 -28 18 -34 8 -7
-12 16 -13 16 -14 0 -8 -10 3 -25 -1 -34 -10 -12 -13 -19 -14 -30 -5 -8 6 -12
15 -9 19 3 5 -4 11 -15 15 -11 4 -18 10 -16 14 3 4 -1 8 -9 8 -22 0 -18 -8 13
-34 22 -18 24 -24 13 -32 -23 -15 28 -19 77 -5 55 16 54 8 -3 -17 -24 -11 -47
-24 -51 -30 -3 -6 -12 -8 -20 -5 -8 3 -14 1 -14 -4 0 -6 -7 -10 -15 -10 -8 0
-15 -4 -15 -10 0 -15 11 -12 49 11 42 26 73 19 46 -11 -15 -16 -21 -18 -34 -7
-14 10 -14 10 -4 -4 15 -19 5 -33 -13 -18 -15 12 -34 4 -33 -14 0 -9 2 -9 6 1
8 20 26 14 20 -8 -3 -11 -1 -20 5 -20 5 0 6 -5 2 -11 -7 -12 -64 37 -64 56 0
7 -7 12 -15 12 -22 0 -19 -6 28 -49 23 -22 37 -42 31 -44 -7 -3 -9 -14 -6 -26
3 -14 1 -19 -6 -15 -5 4 -13 1 -15 -5 -4 -10 -6 -10 -6 0 -1 7 -6 10 -12 7
-17 -11 -68 16 -72 38 -4 20 -4 20 -6 -2 0 -14 7 -33 16 -44 17 -18 17 -20 -2
-34 -20 -15 -20 -15 2 -10 17 4 20 1 15 -12 -5 -14 -4 -14 14 -1 17 12 17 12
6 0 -7 -8 -17 -15 -22 -15 -13 0 -13 -20 0 -21 23 -3 24 -5 5 -20 -11 -8 -19
-18 -18 -22 0 -4 -2 -13 -7 -21 -6 -11 -23 2 -68 50 -49 52 -57 65 -44 71 15
6 15 7 0 7 -21 1 -23 12 -5 31 10 12 9 12 -5 1 -13 -10 -17 -10 -21 1 -2 7 -2
3 0 -9 2 -17 -2 -23 -15 -23 -10 0 -23 5 -29 11 -8 8 -13 8 -17 0 -4 -6 -12
-11 -17 -11 -6 0 -8 4 -5 9 3 5 -1 12 -10 15 -23 9 -24 8 -25 -16 -1 -22 -1
-22 -9 2 -5 17 -8 19 -9 8 -2 -30 -17 -20 -28 20 l-11 37 5 -37 c5 -38 -3 -48
-24 -27 -7 7 -13 7 -17 1 -4 -6 4 -18 16 -27 23 -15 22 -15 -12 -9 -19 3 -40
7 -47 9 -7 2 -14 1 -17 -3 -3 -4 10 -9 27 -10 17 -2 36 -8 42 -14 7 -8 6 -9
-2 -4 -6 3 -19 3 -28 0 -13 -5 -14 -8 -3 -15 9 -6 7 -9 -9 -9 -13 0 -23 -4
-23 -8 0 -4 -14 -16 -31 -26 -34 -20 -33 -34 1 -16 21 11 21 11 5 -13 -14 -23
-14 -25 1 -31 9 -4 19 -4 22 -1 3 3 0 5 -6 5 -19 0 -13 24 11 41 14 11 29 13
42 8 14 -5 16 -8 5 -9 -8 -2 -19 -2 -24 -1 -5 1 -4 -4 2 -12 10 -12 7 -14 -15
-10 -25 3 -26 2 -7 -6 16 -7 21 -17 20 -39 -2 -16 -6 -34 -10 -40 -4 -7 -2
-12 4 -12 8 0 8 -6 0 -20 -8 -16 -8 -20 4 -20 8 0 20 15 27 33 11 29 13 30 16
9 3 -12 8 -20 13 -17 4 3 11 -22 15 -55 4 -33 12 -60 17 -60 6 0 -2 -12 -16
-27 -27 -27 -31 -27 -144 -28 -123 -1 -176 -10 -151 -26 8 -5 68 -9 134 -9
118 0 119 -1 87 -17 -24 -12 -30 -18 -20 -25 10 -6 10 -10 -2 -19 -12 -8 -10
-9 8 -4 16 5 22 2 22 -10 0 -13 6 -16 25 -13 32 7 42 -7 12 -17 -18 -6 -19 -8
-5 -12 9 -2 19 -11 22 -19 4 -10 -3 -14 -26 -14 -30 0 -31 -1 -12 -15 10 -8
28 -15 39 -15 l20 -1 -20 -15 c-11 -8 -32 -14 -46 -12 -19 3 -25 0 -22 -9 3
-7 0 -13 -7 -13 -6 0 -9 -4 -5 -10 3 -5 13 -6 23 -3 16 6 16 6 0 -11 -10 -9
-18 -22 -18 -27 0 -6 -4 -8 -9 -5 -5 3 -14 -8 -20 -26 -14 -39 -14 -51 -1 -43
6 3 10 4 10 0 0 -3 -10 -10 -22 -15 -18 -7 -19 -9 -5 -9 21 -1 23 -21 2 -21
-8 0 -15 -4 -15 -10 0 -5 7 -10 15 -10 8 0 15 -4 15 -10 0 -5 -4 -10 -10 -10
-5 0 -10 -7 -10 -15 0 -8 5 -14 11 -12 6 1 14 -4 17 -12 3 -10 0 -12 -12 -8
-9 4 -16 2 -16 -3 0 -6 -6 -10 -14 -10 -8 0 -13 -8 -12 -17 0 -11 -6 -17 -16
-17 -10 1 -15 -2 -12 -7 3 -5 0 -9 -6 -9 -6 0 -8 -5 -5 -10 5 -8 11 -8 19 -1
13 11 26 5 26 -11 0 -5 -6 -8 -12 -7 -31 4 -41 -1 -29 -14 8 -10 7 -17 -1 -25
-8 -8 -8 -15 1 -26 10 -12 9 -16 -6 -25 -16 -10 -16 -10 4 -11 19 0 22 -5 21
-35 -1 -22 -7 -36 -17 -39 -28 -9 371 3 459 14 211 25 315 45 332 62 27 27 22
30 -34 23 -78 -11 -355 -8 -375 4 -14 8 -3 10 45 11 35 0 61 4 58 9 -3 4 -29
6 -57 3 l-51 -5 26 45 c15 25 41 83 58 129 59 162 33 300 -72 375 -48 34 -120
103 -120 115 0 4 9 9 21 12 22 6 99 -31 99 -48 0 -12 57 -65 63 -59 2 2 12 -5
22 -16 10 -11 24 -20 32 -20 7 0 16 -13 19 -30 7 -31 19 -39 27 -17 4 10 6 9
6 0 1 -21 21 -15 21 6 0 20 28 24 43 6 5 -6 6 -1 2 10 -4 11 -9 36 -13 55 -5
33 -5 34 12 17 10 -9 21 -17 26 -17 4 0 11 -8 14 -17 6 -14 3 -14 -15 3 l-22
19 18 -32 c10 -18 23 -29 28 -26 6 3 7 1 4 -5 -4 -5 -1 -23 7 -39 8 -15 18
-37 21 -47 10 -34 17 -9 7 27 -9 33 -8 35 14 40 14 2 22 2 19 -1 -2 -3 0 -11
7 -19 6 -7 8 -16 4 -20 -3 -3 -6 -1 -6 5 0 29 -18 8 -23 -25 -3 -21 -9 -51
-12 -68 -7 -29 -7 -29 10 -13 10 9 19 27 21 40 4 42 5 43 14 23 4 -11 4 -24
-1 -30 -5 -5 -9 -14 -9 -19 0 -14 16 4 34 38 l15 29 7 -27 c4 -18 11 -25 21
-22 8 4 17 -3 23 -17 8 -21 9 -21 9 -2 1 12 -3 25 -8 30 -5 6 -12 21 -16 34
-6 19 -4 23 8 18 11 -4 13 0 10 14 -3 11 0 19 8 19 7 0 9 3 5 7 -4 4 -15 8
-23 8 -9 0 -24 15 -35 33 -18 32 -18 33 2 22 11 -6 18 -15 15 -20 -3 -6 1 -7
9 -4 10 4 18 -1 22 -11 4 -9 16 -21 28 -25 17 -7 18 -9 4 -9 -22 -1 -24 -17
-3 -25 9 -3 15 0 15 9 0 7 10 16 23 18 20 4 20 4 1 6 -11 0 -31 12 -44 26 -26
27 -22 35 5 9 8 -9 22 -13 31 -10 22 9 9 23 -29 31 -55 11 -67 16 -62 25 3 5
-1 11 -7 13 -7 3 7 6 32 7 49 2 46 5 -14 15 -29 5 -36 9 -25 16 10 6 5 9 -19
9 -20 0 -31 4 -27 10 4 7 -2 9 -17 5 -14 -4 -31 0 -43 10 -19 16 -19 16 14 11
18 -3 45 -6 60 -6 20 0 23 -2 11 -10 -21 -13 -3 -13 22 1 15 8 22 8 28 -1 5
-9 13 -9 25 -2 15 8 11 11 -26 18 -40 7 -42 8 -19 15 22 7 -4 6 -75 -5 -5 0
-9 4 -8 9 1 6 -9 10 -22 10 -13 0 -21 -3 -18 -7 2 -5 -3 -8 -11 -8 -9 0 -16 4
-16 8 0 4 -12 9 -27 10 -16 1 -30 7 -31 12 -2 6 -8 8 -13 4 -5 -3 -9 2 -9 11
0 9 5 13 10 10 6 -3 10 -1 10 6 0 7 10 24 23 37 12 14 15 21 7 17 -12 -7 -13
-6 -3 7 7 8 10 17 7 21 -3 3 3 3 13 1 11 -3 25 2 34 12 13 16 12 16 -8 6 -19
-11 -20 -10 -15 11 5 20 4 21 -11 7 -44 -40 -47 -42 -48 -23 0 16 -1 15 -8 -2
-5 -13 -4 -22 4 -25 9 -4 10 -12 3 -30 -6 -14 -12 -20 -15 -13 -3 8 -10 7 -22
-5 -12 -12 -15 -21 -8 -30 5 -7 7 -16 3 -19 -4 -4 -11 -1 -17 7 -7 13 -10 13
-18 1 -12 -19 -31 -5 -31 23 0 25 17 46 39 46 12 0 12 -3 3 -12 -7 -7 -12 -17
-12 -22 0 -6 7 -2 15 8 8 10 12 23 9 27 -3 5 3 9 12 9 10 0 14 3 11 7 -4 3 -3
11 3 17 5 7 5 17 0 26 -8 12 -10 12 -10 2 0 -16 -40 -51 -58 -52 -7 0 -11 -4
-8 -9 3 -5 -1 -12 -10 -15 -11 -4 -15 -14 -11 -32 4 -23 3 -24 -10 -11 -15 14
-67 12 -58 -3 3 -5 0 -12 -6 -16 -7 -4 -9 -3 -5 4 3 6 2 13 -3 16 -14 9 -6 41
10 41 8 0 13 -5 12 -12 -2 -7 4 -10 12 -7 12 5 10 10 -10 26 -14 10 -29 16
-35 13 -5 -3 -10 -2 -10 3 0 19 124 122 147 122 13 0 38 7 56 16 17 9 50 17
73 18 23 0 40 4 38 8 -2 3 8 9 23 12 92 18 294 -17 216 -37 -14 -4 -12 -5 5
-6 12 0 22 -7 22 -13 0 -9 4 -8 10 2 8 13 10 13 10 -2 0 -9 -5 -20 -10 -23
-11 -7 -4 -46 10 -55 14 -10 19 -67 7 -80 -10 -10 -9 -11 3 -5 12 7 13 6 2 -6
-11 -12 -14 -12 -21 0 -7 11 -10 11 -17 -1 -5 -8 -16 -18 -24 -21 -8 -4 2 -6
23 -4 42 3 45 0 20 -20 -16 -13 -16 -13 5 -3 29 14 45 5 32 -20 -13 -24 -13
-30 1 -30 5 0 7 5 3 12 -5 7 -2 9 9 5 11 -4 14 -2 10 9 -3 7 0 14 7 14 8 0 11
-9 7 -27 -3 -16 0 -38 7 -50 11 -22 13 -22 26 -5 8 9 14 28 12 42 -2 20 -1 22
7 10 19 -27 11 0 -14 50 -18 35 -23 57 -18 80 l6 32 19 -31 c23 -36 28 -39 21
-11 -3 11 0 20 6 20 6 0 11 7 11 16 0 13 4 13 28 -4 48 -33 58 -37 37 -12
l-20 23 40 -7 40 -6 -28 16 c-15 8 -32 25 -36 37 -5 13 -17 22 -29 22 -12 0
-21 5 -19 10 1 6 19 9 39 9 30 -1 35 1 30 15 -3 9 -12 22 -19 30 -8 7 -11 16
-8 19 3 4 9 2 13 -4 4 -6 21 -14 37 -18 23 -5 27 -4 15 5 -12 9 -11 10 8 6 12
-3 20 -1 16 4 -3 5 -15 9 -27 10 -12 0 -16 3 -9 6 10 4 10 8 1 19 -9 11 -7 14
12 15 14 0 18 3 10 6 -10 4 -5 10 15 20 16 7 21 11 10 8 -15 -4 -17 -1 -11 22
5 22 4 25 -8 15 -8 -7 -17 -9 -20 -5 -4 3 -9 -2 -13 -11 -3 -9 -10 -13 -15
-10 -5 3 -6 -1 -3 -9 6 -16 -13 -33 -24 -22 -3 3 0 10 8 15 8 6 12 10 8 10 -4
0 0 16 8 35 7 19 14 49 13 67 0 31 -1 30 -15 -15 -8 -26 -23 -62 -34 -79 l-19
-32 -11 28 c-5 15 -10 30 -10 33 0 4 -7 14 -16 24 -9 10 -14 26 -10 34 5 15 9
14 32 -4 15 -11 31 -18 36 -15 6 4 -10 20 -36 35 -51 32 -56 39 -25 39 11 0
18 -4 15 -9 -4 -5 4 -7 15 -4 21 6 21 7 3 20 -17 13 -16 14 14 8 24 -4 32 -2
32 9 0 10 -13 16 -37 18 l-38 3 28 14 c37 19 34 32 -8 28 -19 -3 -35 -1 -35 4
0 5 -8 6 -17 2 -14 -5 -12 0 6 20 36 39 7 33 -42 -8 -39 -34 -77 -46 -77 -25
0 6 -6 10 -13 10 -7 0 -26 13 -41 29 -25 26 -26 30 -9 34 14 4 12 5 -7 7 -23
1 -23 2 -5 9 11 4 28 6 38 3 14 -4 15 -7 5 -20 -11 -13 -9 -14 14 -9 23 6 26
5 21 -10 -6 -15 -5 -16 9 -3 18 17 13 41 -8 33 -8 -3 -14 -1 -14 5 0 5 -15 12
-32 16 -26 5 -30 9 -18 16 13 8 13 10 -2 10 -9 0 -18 -5 -20 -12 -3 -7 -9 -8
-19 -3 -8 5 -35 10 -60 10 -38 1 -51 6 -72 31 -15 16 -27 26 -27 23z m16 -214
c3 -18 0 -18 -29 -4 -20 9 -20 9 2 -9 16 -13 20 -21 12 -26 -7 -4 -18 -6 -25
-3 -7 3 -12 -3 -12 -15 1 -12 -5 -23 -13 -26 -22 -8 -6 66 20 95 23 24 40 19
45 -12z m191 -35 c15 -16 21 -34 19 -50 -4 -24 -4 -24 7 3 11 27 30 38 25 15
-1 -7 2 -23 6 -36 6 -18 11 -21 21 -12 10 8 11 18 5 35 -8 20 -6 23 7 18 12
-5 14 -3 8 7 -5 9 -4 11 4 6 6 -4 9 -12 5 -17 -3 -5 -7 -30 -8 -55 -2 -24 -7
-48 -11 -52 -5 -4 -5 -1 0 7 6 10 4 12 -4 7 -6 -4 -9 -16 -6 -26 3 -10 1 -21
-5 -25 -6 -3 -8 -11 -4 -16 3 -6 -2 -17 -12 -25 -11 -9 -14 -13 -7 -10 6 4 14
2 18 -4 8 -13 -13 -13 -109 2 -79 12 -104 29 -75 52 8 6 14 23 14 37 -1 18 3
25 12 22 7 -3 13 -11 13 -18 0 -7 7 -18 15 -25 9 -7 14 -19 11 -26 -2 -6 4
-14 15 -17 17 -5 17 -3 5 15 -8 11 -12 27 -9 36 4 10 2 13 -5 8 -8 -4 -10 -2
-6 7 3 8 0 18 -6 22 -6 4 -8 15 -5 26 4 10 2 19 -3 19 -5 0 -9 23 -10 51 -1
50 10 57 22 14 3 -11 4 -3 3 17 -3 41 3 39 50 -12z m63 7 c0 -5 -4 -5 -10 -2
-5 3 -10 14 -10 23 0 15 2 15 10 2 5 -8 10 -19 10 -23z m-160 -2 c0 -16 -6
-25 -15 -25 -15 0 -21 31 -8 43 13 14 23 6 23 -18z m130 -8 c0 -4 -6 -2 -14 5
-8 7 -12 17 -9 22 5 8 23 -12 23 -27z m-231 -34 c-3 -20 2 -26 11 -13 8 12 10
12 10 -5 1 -20 1 -20 15 -1 8 11 15 15 15 10 0 -6 -5 -15 -11 -21 -7 -7 -9
-20 -5 -30 10 -26 9 -28 -24 -26 -21 1 -27 -2 -23 -13 4 -11 9 -12 18 -4 9 8
15 8 20 0 9 -15 -23 -24 -39 -11 -11 9 -15 9 -20 -1 -3 -7 -3 -1 0 13 3 15 1
30 -6 34 -8 5 -8 10 1 21 6 8 8 14 4 14 -5 0 0 9 10 20 19 21 26 25 24 13z
m91 -13 c0 -5 -5 -10 -11 -10 -5 0 -7 5 -4 10 3 6 8 10 11 10 2 0 4 -4 4 -10z
m-20 -24 c0 -2 -7 -9 -15 -16 -13 -11 -14 -10 -9 4 5 14 24 23 24 12z m44 -12
c10 -25 -1 -29 -14 -5 -6 12 -7 21 -1 21 5 0 12 -7 15 -16z m-289 -4 c3 -5 2
-10 -4 -10 -5 0 -13 5 -16 10 -3 6 -2 10 4 10 5 0 13 -4 16 -10z m251 -47
c-11 -11 -17 4 -9 23 7 18 8 18 11 1 2 -10 1 -21 -2 -24z m440 -29 c-4 -9 -9
-15 -11 -12 -3 3 -3 13 1 22 4 9 9 15 11 12 3 -3 3 -13 -1 -22z m-824 -19 c19
-19 41 -46 48 -60 13 -24 11 -28 -40 -80 -30 -30 -59 -55 -64 -55 -5 0 -19 8
-30 18 -20 16 -20 16 -7 0 12 -16 11 -18 -4 -18 -13 0 -16 6 -12 22 3 11 -1
34 -9 49 -17 33 -17 39 -4 39 6 0 10 -7 10 -15 0 -16 16 -20 24 -6 3 5 -1 11
-9 15 -8 3 -15 17 -15 33 1 25 2 26 14 11 18 -24 29 -23 16 1 -15 29 -12 41 8
35 13 -4 12 -2 -3 7 -28 17 -28 16 -20 28 14 23 61 11 97 -24z m192 10 c-9
-22 5 -38 21 -25 8 7 19 9 25 5 5 -3 10 -1 10 6 0 6 -8 9 -20 6 -11 -3 -20 -1
-20 4 0 5 7 9 15 9 8 0 15 6 15 13 0 6 5 4 11 -6 16 -27 3 -71 -19 -62 -9 3
-13 3 -9 -2 9 -9 -68 -42 -100 -42 -30 -1 -29 6 7 53 22 29 30 34 30 21 0 -33
15 -2 19 38 1 5 5 6 11 2 5 -3 7 -12 4 -20z m-441 -16 c-11 -12 -26 -18 -33
-14 -13 8 16 34 40 35 11 0 9 -6 -7 -21z m547 11 c0 -5 -4 -10 -10 -10 -5 0
-10 5 -10 10 0 6 5 10 10 10 6 0 10 -4 10 -10z m69 6 c-12 -10 -60 -16 -54 -6
3 5 18 10 32 10 15 0 24 -2 22 -4z m250 -40 c-22 -20 -22 -20 -6 0 9 11 17 27
18 35 0 11 2 11 6 0 3 -7 -5 -23 -18 -35z m-755 8 c9 -24 2 -26 -12 -4 -7 11
-8 20 -3 20 5 0 12 -7 15 -16z m500 7 c6 -10 -28 -21 -59 -20 -16 0 -13 4 10
14 36 17 42 18 49 6z m323 -43 c-3 -8 -6 -5 -6 6 -1 11 2 17 5 13 3 -3 4 -12
1 -19z m46 -29 c4 -16 3 -18 -9 -8 -16 13 -19 29 -5 29 5 0 11 -9 14 -21z
m-143 -21 c0 -19 -2 -20 -10 -8 -13 19 -13 30 0 30 6 0 10 -10 10 -22z m-780
-4 c0 -8 4 -12 10 -9 5 3 13 -7 16 -22 4 -15 14 -33 22 -39 12 -9 11 -11 -8
-9 -32 2 -81 95 -50 95 6 0 10 -7 10 -16z m-20 -36 c0 -10 4 -18 10 -18 12 0
30 -67 23 -86 -3 -8 0 -14 7 -14 6 0 8 -4 5 -10 -4 -6 -11 -5 -19 3 -8 6 -12
15 -10 18 2 4 -5 33 -16 65 -22 66 -26 100 -10 74 5 -8 10 -23 10 -32z m880
-39 c0 -6 -4 -7 -10 -4 -5 3 -10 11 -10 16 0 6 5 7 10 4 6 -3 10 -11 10 -16z
m17 -21 c-3 -7 -5 -2 -5 12 0 14 2 19 5 13 2 -7 2 -19 0 -25z m53 22 c8 -5 11
-10 5 -10 -5 0 -17 5 -25 10 -8 5 -10 10 -5 10 6 0 17 -5 25 -10z m-810 -24
c0 -3 -4 -8 -10 -11 -5 -3 -10 -1 -10 4 0 6 5 11 10 11 6 0 10 -2 10 -4z m178
-154 c-10 -2 -18 -8 -18 -13 0 -5 -5 -9 -12 -9 -6 0 -3 8 7 20 10 11 23 16 29
12 7 -4 5 -8 -6 -10z m-89 -24 l14 -23 -24 20 c-13 11 -26 21 -28 22 -2 2 2 3
10 3 8 0 20 -10 28 -22z m135 1 c-3 -5 -10 -7 -15 -3 -5 3 -7 10 -3 15 3 5 10
7 15 3 5 -3 7 -10 3 -15z m506 9 c0 -7 -5 -20 -10 -28 -8 -12 -10 -9 -10 13 0
15 5 27 10 27 6 0 10 -6 10 -12z m-380 -21 c9 -3 5 -6 -10 -6 -14 0 -32 4 -40
10 -13 9 -12 10 3 5 10 -3 17 0 17 7 0 8 3 9 8 1 4 -6 14 -14 22 -17z m-180
-7 c0 -5 -2 -10 -4 -10 -3 0 -8 5 -11 10 -3 6 -1 10 4 10 6 0 11 -4 11 -10z
m-74 -15 c10 -8 15 -14 9 -14 -5 0 -19 6 -29 14 -11 8 -15 15 -10 15 6 0 19
-7 30 -15z m341 9 c-3 -3 -12 -4 -19 -1 -8 3 -5 6 6 6 11 1 17 -2 13 -5z
m-267 -24 c18 -16 21 -23 12 -32 -9 -9 -12 -9 -12 2 0 7 -7 22 -17 32 -22 24
-12 23 17 -2z m230 6 c0 -3 -4 -8 -10 -11 -5 -3 -10 -1 -10 4 0 6 5 11 10 11
6 0 10 -2 10 -4z m-141 -65 c0 -14 -1 -14 -6 -1 -3 8 -10 24 -15 35 -9 20 -9
20 6 1 9 -11 16 -27 15 -35z m121 34 c20 -24 6 -28 -15 -5 -10 11 -13 20 -8
20 6 0 16 -7 23 -15z m34 -25 c-5 -5 -10 3 -11 18 -1 22 0 24 9 8 6 -10 6 -22
2 -26z m14 -65 c-3 -3 -9 2 -12 12 -6 14 -5 15 5 6 7 -7 10 -15 7 -18z m-668
-160 c0 -14 -2 -25 -4 -25 -2 0 -6 11 -8 25 -3 14 -1 25 3 25 5 0 9 -11 9 -25z
m30 -25 c0 -5 -4 -10 -10 -10 -5 0 -10 5 -10 10 0 6 5 10 10 10 6 0 10 -4 10
-10z m237 -316 c-3 -3 -12 -4 -19 -1 -8 3 -5 6 6 6 11 1 17 -2 13 -5z"/>
<path d="M2417 1861 c-4 -17 -3 -21 5 -13 5 5 8 16 6 23 -3 8 -7 3 -11 -10z"/>
<path d="M2380 1811 c0 -5 7 -15 17 -22 15 -13 15 -12 4 9 -12 23 -21 28 -21
13z"/>
<path d="M2215 1820 c-3 -5 -1 -10 4 -10 6 0 11 5 11 10 0 6 -2 10 -4 10 -3 0
-8 -4 -11 -10z"/>
<path d="M2305 2140 c10 -11 20 -20 23 -20 3 0 -3 9 -13 20 -10 11 -20 20 -23
20 -3 0 3 -9 13 -20z"/>
<path d="M2529 2037 c-9 -7 -14 -18 -11 -26 3 -10 -2 -11 -19 -7 -23 7 -23 7
-4 -9 16 -12 21 -13 32 -2 7 7 15 23 18 35 5 25 5 25 -16 9z"/>
<path d="M2110 2029 c0 -5 5 -7 10 -4 6 3 10 8 10 11 0 2 -4 4 -10 4 -5 0 -10
-5 -10 -11z"/>
<path d="M2030 2006 c0 -2 8 -10 18 -17 15 -13 16 -12 3 4 -13 16 -21 21 -21
13z"/>
<path d="M1841 1985 c-1 -25 6 -34 46 -62 44 -31 55 -29 13 2 -19 14 -40 37
-46 53 -10 22 -12 23 -13 7z"/>
<path d="M1768 1931 c12 -7 42 -56 42 -68 0 -2 -5 -1 -12 3 -7 5 -8 3 -4 -5 6
-9 12 -8 25 6 17 17 17 18 -1 25 -10 4 -18 14 -18 22 0 7 -7 17 -16 20 -22 9
-31 7 -16 -3z"/>
<path d="M1935 1884 c-9 -14 -15 -27 -13 -30 2 -2 12 10 22 26 21 37 15 40 -9
4z"/>
<path d="M2086 1870 c10 -16 21 -27 26 -24 11 7 -8 40 -27 48 -14 5 -14 2 1
-24z"/>
<path d="M2630 1844 c0 -11 47 -64 57 -64 4 0 -4 12 -18 28 -13 15 -27 31 -31
37 -5 5 -8 5 -8 -1z"/>
<path d="M1978 1773 c7 -3 16 -2 19 1 4 3 -2 6 -13 5 -11 0 -14 -3 -6 -6z"/>
<path d="M6370 1626 c0 -9 -11 -21 -24 -27 l-24 -11 -3 -619 c-3 -477 -7 -621
-17 -631 -9 -9 -12 -7 -13 12 l-1 25 -8 -25 -7 -25 -11 25 c-8 19 -11 21 -11
7 -1 -30 -17 -10 -31 37 -13 49 -27 59 -110 80 -30 7 -72 21 -92 30 -93 40
-109 46 -119 46 -6 0 -25 6 -42 14 -18 8 -60 21 -95 31 -35 9 -112 38 -172 65
-116 53 -129 57 -203 65 -42 4 -49 2 -57 -18 -5 -12 -9 -17 -9 -10 -1 6 -14
16 -31 22 -25 8 -30 7 -30 -6 0 -12 -3 -13 -15 -3 -8 6 -19 9 -25 5 -5 -3 -10
-1 -10 5 0 6 -4 9 -9 6 -5 -3 -22 -3 -37 0 -28 5 -29 7 -26 64 4 69 12 65
-170 76 -65 3 -118 10 -118 15 0 5 5 9 10 9 6 0 10 5 10 11 0 6 -7 8 -16 5
-14 -5 -15 -4 -4 9 10 12 8 16 -14 25 -14 5 -26 11 -26 13 0 3 9 24 19 48 11
25 18 53 16 64 -2 11 -4 27 -4 36 -1 8 -7 23 -14 33 -12 16 -14 10 -16 -48 -1
-37 -6 -78 -11 -90 -8 -23 -64 -76 -80 -76 -5 0 -15 -3 -24 -6 -11 -4 -16 0
-16 14 0 11 -6 23 -12 25 -10 4 -10 6 -1 6 8 1 11 11 7 29 -4 22 -2 29 10 29
21 0 31 -34 16 -52 -10 -12 -9 -15 7 -15 39 0 52 22 59 104 5 61 4 80 -7 87
-20 12 -23 12 -47 -11 -22 -21 -30 -16 -38 25 -4 23 -2 25 39 25 43 0 43 1 39
30 -4 29 -6 30 -46 24 -40 -6 -87 -34 -57 -34 10 0 11 -3 2 -14 -6 -8 -11 -31
-11 -52 1 -94 -8 -154 -29 -194 -14 -27 -72 -53 -115 -53 -34 1 -37 0 -16 -7
14 -4 52 -8 84 -9 69 -1 67 -15 -2 -18 -26 -1 -51 -3 -57 -3 -5 -1 -40 1 -77
4 -53 3 -70 1 -80 -11 -11 -14 -10 -15 11 -8 15 4 21 3 17 -3 -16 -26 276 -49
429 -33 131 14 244 29 270 37 39 12 1 -14 -82 -56 l-83 -41 0 -53 0 -53 -47
-13 c-27 -6 -53 -13 -59 -15 -10 -3 -27 -95 -19 -104 2 -2 35 2 72 9 37 7 86
14 108 15 68 5 278 34 315 45 19 5 50 23 67 39 l33 30 68 -97 c79 -113 73
-105 180 -262 46 -67 90 -129 98 -137 10 -10 11 -20 5 -32 -6 -10 -6 -23 0
-32 5 -7 9 -29 9 -46 l0 -33 505 0 505 0 0 200 c0 171 -2 200 -15 200 -8 0
-15 5 -15 10 0 6 -7 10 -15 10 -9 0 -26 6 -38 14 -12 8 -40 17 -62 21 -22 4
-44 10 -50 13 -5 4 -19 7 -30 7 -22 0 -29 21 -51 165 -8 52 -21 127 -29 165
-19 89 -35 347 -36 590 -1 105 -4 201 -8 214 -8 28 -31 40 -31 17z m-1707
-763 c-7 -2 -19 -2 -25 0 -7 3 -2 5 12 5 14 0 19 -2 13 -5z m627 -169 c0 -8
-4 -12 -10 -9 -5 3 -10 10 -10 16 0 5 5 9 10 9 6 0 10 -7 10 -16z"/>
<path d="M2715 1550 c3 -5 10 -10 16 -10 5 0 9 5 9 10 0 6 -7 10 -16 10 -8 0
-12 -4 -9 -10z"/>
<path d="M1682 1510 c0 -14 2 -19 5 -12 2 6 2 18 0 25 -3 6 -5 1 -5 -13z"/>
<path d="M2230 1519 c0 -5 5 -7 10 -4 6 3 10 8 10 11 0 2 -4 4 -10 4 -5 0 -10
-5 -10 -11z"/>
<path d="M5872 1523 c37 -2 100 -2 140 0 40 1 10 3 -67 3 -77 0 -110 -1 -73
-3z"/>
<path d="M1620 1495 c0 -8 2 -15 4 -15 2 0 6 7 10 15 3 8 1 15 -4 15 -6 0 -10
-7 -10 -15z"/>
<path d="M1600 1476 c0 -2 8 -10 18 -17 15 -13 16 -12 3 4 -13 16 -21 21 -21
13z"/>
<path d="M2194 1451 c-13 -22 -24 -29 -36 -25 -10 3 -18 0 -18 -6 0 -6 5 -8
10 -5 6 3 10 1 10 -4 0 -18 34 8 48 37 17 37 7 39 -14 3z"/>
<path d="M2234 1455 c-10 -8 -14 -15 -8 -15 6 0 17 7 24 15 16 19 9 19 -16 0z"/>
<path d="M1819 1366 c8 -9 24 -22 35 -28 19 -10 20 -10 7 6 -8 9 -24 22 -35
28 -19 10 -20 10 -7 -6z"/>
<path d="M2622 1320 c0 -14 2 -19 5 -12 2 6 2 18 0 25 -3 6 -5 1 -5 -13z"/>
<path d="M2491 1312 c-8 -15 -5 -17 21 -19 18 0 26 2 18 7 -7 4 -9 13 -6 19 4
6 1 11 -8 11 -8 0 -20 -8 -25 -18z"/>
<path d="M2370 1271 c0 -4 18 -13 40 -20 22 -6 40 -18 40 -26 0 -7 9 -17 21
-20 26 -9 32 -3 16 18 -14 18 -117 61 -117 48z"/>
<path d="M4419 1268 c-21 -8 -22 -10 -7 -19 10 -5 48 -12 85 -15 l68 -5 -30
25 c-31 26 -69 31 -116 14z"/>
<path d="M1645 1150 c3 -5 11 -10 16 -10 6 0 7 5 4 10 -3 6 -11 10 -16 10 -6
0 -7 -4 -4 -10z"/>
<path d="M2450 1146 c0 -3 9 -10 20 -16 11 -6 20 -8 20 -6 0 3 -9 10 -20 16
-11 6 -20 8 -20 6z"/>
<path d="M1566 1117 c3 -10 9 -15 12 -12 3 3 0 11 -7 18 -10 9 -11 8 -5 -6z"/>
<path d="M1590 1079 c0 -5 -4 -7 -10 -4 -6 4 -7 -1 -3 -11 4 -11 8 -13 11 -6
2 7 10 12 18 12 9 0 12 5 9 10 -8 13 -25 13 -25 -1z"/>
<path d="M2311 1044 c0 -11 3 -14 6 -6 3 7 2 16 -1 19 -3 4 -6 -2 -5 -13z"/>
<path d="M2261 1043 c-1 -6 -4 -20 -7 -30 -5 -17 -5 -17 6 0 6 10 9 23 6 30
-3 9 -5 9 -5 0z"/>
<path d="M4360 940 c0 -5 5 -10 10 -10 6 0 10 5 10 10 0 6 -4 10 -10 10 -5 0
-10 -4 -10 -10z"/>
<path d="M1450 921 c0 -6 4 -13 10 -16 6 -3 7 1 4 9 -7 18 -14 21 -14 7z"/>
<path d="M3901 878 c-1 -39 14 -57 32 -39 8 8 8 11 -1 11 -6 0 -16 15 -21 33
l-9 32 -1 -37z"/>
<path d="M3840 859 c0 -5 5 -7 10 -4 6 3 10 8 10 11 0 2 -4 4 -10 4 -5 0 -10
-5 -10 -11z"/>
<path d="M3135 840 c-3 -5 -15 -10 -26 -10 -10 0 -19 -4 -19 -10 0 -5 6 -10
14 -10 7 0 26 -2 42 -5 40 -7 62 8 45 29 -15 18 -47 21 -56 6z"/>
<path d="M3790 819 c0 -5 5 -7 10 -4 6 3 10 8 10 11 0 2 -4 4 -10 4 -5 0 -10
-5 -10 -11z"/>
<path d="M4080 742 c1 -15 1 -36 0 -47 -1 -19 -2 -19 -9 -2 -6 16 -10 13 -32
-20 -13 -21 -31 -38 -39 -39 -8 0 -28 -6 -43 -12 -16 -7 -37 -12 -48 -12 -10
0 -19 -5 -19 -12 0 -8 38 -9 143 -5 78 4 163 7 189 7 45 0 53 8 36 35 -12 19
6 33 47 37 33 3 24 6 -47 17 -60 9 -92 19 -104 32 -9 11 -30 26 -46 34 -29 14
-29 14 -28 -13z"/>
<path d="M4603 763 c9 -2 23 -2 30 0 6 3 -1 5 -18 5 -16 0 -22 -2 -12 -5z"/>
<path d="M2428 743 c7 -3 16 -2 19 1 4 3 -2 6 -13 5 -11 0 -14 -3 -6 -6z"/>
<path d="M2763 743 c9 -2 23 -2 30 0 6 3 -1 5 -18 5 -16 0 -22 -2 -12 -5z"/>
<path d="M2501 735 c3 -2 22 -7 42 -9 21 -3 41 -8 46 -11 5 -2 38 -2 72 2 l64
8 -60 6 c-74 8 -170 11 -164 4z"/>
<path d="M2447 675 l-28 -25 30 0 c29 0 59 29 44 44 -10 10 -16 7 -46 -19z"/>
<path d="M2555 690 c-3 -5 -2 -10 4 -10 5 0 13 5 16 10 3 6 2 10 -4 10 -5 0
-13 -4 -16 -10z"/>
<path d="M2331 677 c-6 -8 -7 -17 -3 -21 4 -4 1 -6 -7 -4 -7 2 -16 -3 -18 -9
-3 -7 1 -13 9 -13 14 0 88 47 88 55 0 11 -59 4 -69 -8z"/>
<path d="M2970 105 c-10 -12 -10 -21 -2 -38 5 -12 13 -30 16 -40 11 -35 28 -6
21 37 -9 50 -18 62 -35 41z"/>
<path d="M3033 110 c-13 -5 -23 -16 -23 -25 0 -18 16 -20 24 -2 7 15 0 -29 -9
-60 -6 -19 -3 -23 13 -23 16 0 19 7 19 43 0 23 3 50 7 60 9 19 2 20 -31 7z"/>
<path d="M2455 100 c3 -5 8 -10 11 -10 2 0 4 5 4 10 0 6 -5 10 -11 10 -5 0 -7
-4 -4 -10z"/>
<path d="M3286 85 c-17 -26 -46 -24 -46 4 0 14 -2 14 -10 1 -5 -8 -15 -15 -22
-16 -34 -3 -38 -5 -38 -23 0 -46 10 -51 40 -21 15 16 31 26 35 22 4 -4 12 -7
18 -7 7 0 11 -11 10 -23 -3 -21 1 -22 62 -22 l65 0 -3 50 c-4 55 -12 69 -29
52 -15 -15 -62 -16 -53 -2 14 22 -14 8 -29 -15z m34 -39 c0 -3 -4 -8 -10 -11
-5 -3 -10 -1 -10 4 0 6 5 11 10 11 6 0 10 -2 10 -4z"/>
<path d="M3613 92 c-8 -21 0 -22 25 -3 l23 17 -22 0 c-12 0 -24 -6 -26 -14z"/>
<path d="M3740 99 c0 -5 5 -7 10 -4 6 3 10 8 10 11 0 2 -4 4 -10 4 -5 0 -10
-5 -10 -11z"/>
<path d="M4793 75 c3 -19 2 -35 -4 -35 -5 0 -9 8 -9 19 0 10 -7 24 -15 31 -13
11 -20 9 -38 -9 -27 -25 -37 -27 -37 -6 0 10 -10 13 -37 11 -21 -2 -44 1 -51
7 -10 8 -16 7 -21 -1 -4 -7 -15 -10 -23 -7 -9 4 -45 -1 -80 -9 -34 -9 -74 -15
-88 -14 -14 1 -35 -2 -47 -6 -20 -6 -23 -4 -23 21 l0 28 -23 -26 c-26 -31 -67
-45 -67 -22 0 8 5 11 10 8 12 -7 40 12 40 27 0 5 -4 7 -8 4 -5 -3 -24 -8 -43
-11 -18 -3 -37 -11 -41 -18 -6 -9 -12 -7 -22 6 -14 18 -15 17 -31 -13 -15 -29
-51 -53 -67 -43 -5 2 -8 20 -8 39 0 30 -2 33 -17 26 -10 -5 -25 -7 -33 -4 -8
2 -12 1 -8 -3 4 -5 2 -15 -4 -23 -7 -7 -13 -23 -15 -33 -3 -19 5 -20 202 -19
175 1 206 4 214 17 8 14 12 14 41 -1 46 -22 75 -20 89 6 l11 23 -6 -22 c-5
-22 -3 -23 65 -23 61 0 71 3 71 18 1 16 1 16 11 0 13 -23 69 -25 69 -3 0 8 5
15 10 15 6 0 10 -6 10 -13 0 -19 199 -24 212 -5 8 10 11 10 15 1 3 -10 41 -13
139 -13 127 0 134 1 134 20 0 11 5 20 11 20 6 0 8 -9 4 -20 -6 -20 -3 -21 82
-18 73 3 88 6 88 19 0 9 6 23 13 31 23 28 -4 58 -43 48 -5 -1 -38 -2 -72 -1
-44 1 -63 -3 -63 -11 0 -9 -4 -8 -10 2 -9 13 -10 13 -10 0 -1 -12 -2 -12 -10
2 -8 12 -17 15 -38 10 -15 -4 -58 -7 -97 -7 -38 0 -73 -4 -77 -10 -5 -6 -8 -6
-8 1 0 7 -14 10 -37 7 -55 -7 -65 -6 -98 0 -16 4 -32 2 -36 -4 -4 -7 -19 -5
-44 5 l-38 16 6 -35z m-233 -5 c0 -5 -5 -10 -11 -10 -5 0 -7 5 -4 10 3 6 8 10
11 10 2 0 4 -4 4 -10z m477 -22 c-3 -8 -6 -5 -6 6 -1 11 2 17 5 13 3 -3 4 -12
1 -19z m-817 -8 c0 -5 -4 -10 -10 -10 -5 0 -10 5 -10 10 0 6 5 10 10 10 6 0
10 -4 10 -10z"/>
<path d="M2320 86 c0 -7 -12 -22 -27 -32 -17 -11 -23 -19 -15 -22 15 -5 52 34
52 55 0 7 -2 13 -5 13 -3 0 -5 -6 -5 -14z"/>
<path d="M2820 83 c-14 -7 -29 -11 -35 -9 -5 2 -22 -14 -37 -35 l-28 -39 40 0
c22 0 40 5 40 10 0 15 40 12 41 -2 1 -7 5 5 9 27 10 52 2 65 -30 48z"/>
<path d="M2898 93 c-22 -5 -23 -26 -4 -42 11 -10 17 -7 30 10 8 12 13 26 10
31 -5 8 -8 9 -36 1z"/>
<path d="M3085 90 c3 -5 8 -10 11 -10 2 0 4 5 4 10 0 6 -5 10 -11 10 -5 0 -7
-4 -4 -10z"/>
<path d="M3565 90 c-3 -5 1 -10 9 -10 9 0 16 5 16 10 0 6 -4 10 -9 10 -6 0
-13 -4 -16 -10z"/>
<path d="M5573 88 c-6 -7 -13 -30 -17 -50 -7 -37 -6 -38 23 -38 25 0 32 5 37
26 5 21 11 24 30 20 17 -5 24 -2 24 8 0 10 6 13 16 9 12 -4 15 -2 12 8 -3 9
-19 14 -47 13 -22 0 -41 3 -41 8 0 12 -26 10 -37 -4z"/>
<path d="M1430 51 c0 -43 11 -57 38 -46 13 5 14 8 3 14 -10 6 -9 11 4 25 15
15 15 16 0 16 -11 0 -15 5 -11 15 4 10 -1 15 -14 15 -17 0 -20 -7 -20 -39z"/>
<path d="M1884 75 c-7 -18 -31 -20 -37 -2 -2 6 -6 0 -9 -15 -5 -27 5 -38 17
-18 3 5 15 10 25 10 11 0 24 9 30 20 9 16 8 20 -5 20 -9 0 -18 -7 -21 -15z"/>
<path d="M2700 63 c-19 -13 -44 -33 -55 -44 -19 -19 -19 -19 15 -19 29 1 40 7
62 40 33 47 25 55 -22 23z"/>
<path d="M3465 80 c-3 -5 -1 -10 4 -10 6 0 10 -4 9 -9 -5 -16 12 -11 32 9 l20
20 -29 0 c-17 0 -33 -4 -36 -10z"/>
<path d="M3967 71 c-3 -12 -1 -21 3 -21 15 0 23 21 12 32 -6 6 -11 2 -15 -11z"/>
<path d="M1999 78 c-1 -2 -3 -20 -4 -40 -2 -33 1 -38 20 -38 12 0 30 10 41 21
19 21 19 22 -4 15 -27 -9 -53 9 -45 30 4 11 -3 21 -8 12z"/>
<path d="M2425 70 c-3 -5 -1 -10 4 -10 6 0 11 5 11 10 0 6 -2 10 -4 10 -3 0
-8 -4 -11 -10z"/>
<path d="M2595 64 c-40 -21 -41 -21 -20 -44 22 -25 32 -25 39 -2 4 10 15 28
27 40 18 20 18 22 2 22 -10 0 -31 -7 -48 -16z"/>
<path d="M3738 67 c-21 -6 -38 -16 -38 -23 0 -7 -3 -21 -6 -31 -5 -17 -5 -17
6 0 6 9 24 24 40 32 27 14 30 14 30 0 0 -8 -4 -15 -10 -15 -5 0 -10 -7 -10
-15 0 -10 11 -15 35 -15 30 0 35 3 34 23 0 12 -3 16 -6 10 -10 -25 -25 -12
-21 17 5 33 3 33 -54 17z"/>
<path d="M911 54 c0 -11 3 -14 6 -6 3 7 2 16 -1 19 -3 4 -6 -2 -5 -13z"/>
<path d="M3580 63 c-8 -3 -22 -12 -31 -20 -9 -8 -26 -15 -38 -16 -11 -1 -21
-6 -21 -12 0 -19 31 -13 54 9 12 12 31 26 42 33 20 13 18 15 -6 6z"/>
<path d="M3916 55 c-16 -12 -17 -15 -4 -15 8 0 21 7 28 15 16 19 1 19 -24 0z"/>
<path d="M3110 44 c0 -16 -2 -17 -10 -4 -8 13 -10 12 -10 -2 0 -10 5 -18 10
-18 13 0 25 28 16 37 -3 4 -6 -2 -6 -13z"/>
<path d="M1686 35 c-3 -8 -1 -15 4 -15 6 0 10 7 10 15 0 8 -2 15 -4 15 -2 0
-6 -7 -10 -15z"/>
<path d="M3623 35 c-6 -6 -7 -18 -3 -25 6 -9 10 -7 15 9 8 27 4 33 -12 16z"/>
<path d="M3667 43 c-4 -3 -7 -16 -6 -27 0 -19 1 -19 10 3 10 24 8 36 -4 24z"/>
<path d="M555 30 c-3 -5 -1 -10 4 -10 6 0 11 5 11 10 0 6 -2 10 -4 10 -3 0 -8
-4 -11 -10z"/>
<path d="M1781 24 c0 -11 3 -14 6 -6 3 7 2 16 -1 19 -3 4 -6 -2 -5 -13z"/>
<path d="M2498 33 c-16 -3 -28 -11 -28 -19 0 -11 10 -14 38 -12 24 2 37 8 37
17 0 17 -10 19 -47 14z"/>
<path d="M1198 23 c-10 -2 -18 -8 -18 -13 0 -14 39 -7 44 7 6 13 3 14 -26 6z"/>
<path d="M2920 15 c0 -8 5 -15 10 -15 6 0 10 7 10 15 0 8 -4 15 -10 15 -5 0
-10 -7 -10 -15z"/>
<path d="M1265 10 c-3 -5 -1 -10 4 -10 6 0 11 5 11 10 0 6 -2 10 -4 10 -3 0
-8 -4 -11 -10z"/>
<path d="M1645 10 c-3 -5 -1 -10 4 -10 6 0 11 5 11 10 0 6 -2 10 -4 10 -3 0
-8 -4 -11 -10z"/>
<path d="M2420 10 c0 -5 4 -10 9 -10 6 0 13 5 16 10 3 6 -1 10 -9 10 -9 0 -16
-4 -16 -10z"/>
<path d="M3445 10 c-3 -5 1 -10 9 -10 9 0 16 5 16 10 0 6 -4 10 -9 10 -6 0
-13 -4 -16 -10z"/>
</g>
</svg>
